<svg width="354" height="160" viewBox="0 0 354 160" fill="none" xmlns="http://www.w3.org/2000/svg">
<rect x="40.3389" y="86.7288" width="32.2712" height="32.2712" fill="#FFAF2B"/>
<rect x="40.3389" y="20.1695" width="32.2712" height="32.2712" fill="#FFAF2B"/>
<rect width="112.949" height="20.1695" transform="matrix(1 0 0 -1 0 20.1695)" fill="#FFAF2B"/>
<rect y="31.467" width="30.0685" height="87.4084" fill="#0171C1"/>
<rect x="82.5134" y="31.467" width="30.7677" height="87.4084" fill="#0171C1"/>
<rect x="28.2373" y="58.4915" width="56.4746" height="22.1864" fill="#0171C1"/>
<path d="M134.46 79H143.34V59.8H160.14V79H168.96V34.6H160.14V52.12H143.34V34.6H134.46V79ZM191.17 79.84C195.73 79.84 198.91 77.62 201.85 74.2H202.03L202.69 79H209.89V45.46H201.13V68.08C198.85 71.08 197.05 72.28 194.29 72.28C190.99 72.28 189.55 70.48 189.55 65.32V45.46H180.73V66.4C180.73 74.86 183.91 79.84 191.17 79.84ZM233.593 79.84C236.593 79.84 238.933 79.18 240.733 78.58L239.293 72.16C238.333 72.52 237.073 72.94 235.933 72.94C232.993 72.94 231.373 71.14 231.373 67.3V52.36H239.713V45.46H231.373V36.34H224.053L223.093 45.46L217.873 45.82V52.36H222.553V67.3C222.553 74.8 225.613 79.84 233.593 79.84ZM261.782 79.84C265.922 79.84 270.122 78.46 273.422 76.18L270.482 70.72C268.022 72.22 265.622 73.06 262.922 73.06C257.942 73.06 254.342 70.24 253.562 64.72H274.322C274.502 63.88 274.682 62.32 274.682 60.64C274.682 51.34 269.942 44.62 260.642 44.62C252.722 44.62 245.042 51.34 245.042 62.26C245.042 73.36 252.362 79.84 261.782 79.84ZM253.442 58.84C254.162 53.92 257.282 51.4 260.822 51.4C265.142 51.4 267.182 54.28 267.182 58.84H253.442ZM298.226 79.84C301.946 79.84 306.086 78.58 309.266 75.82L305.786 70C303.926 71.5 301.646 72.7 299.186 72.7C294.386 72.7 290.906 68.56 290.906 62.26C290.906 55.9 294.326 51.82 299.546 51.82C301.346 51.82 302.966 52.54 304.646 53.98L308.786 48.34C306.326 46.18 303.206 44.62 299.006 44.62C289.886 44.62 281.906 51.1 281.906 62.26C281.906 73.36 288.986 79.84 298.226 79.84ZM317.646 79H326.466V55.9C328.926 53.5 330.666 52.18 333.426 52.18C336.666 52.18 338.166 53.92 338.166 59.2V79H346.986V58.06C346.986 49.66 343.806 44.62 336.606 44.62C332.046 44.62 328.686 47.02 326.046 49.54L326.466 43.24V31.18H317.646V79Z" fill="#0171C1"/>
<path d="M140.736 118.392C145.496 118.392 148.324 115.508 148.324 112.12C148.324 109.152 146.672 107.528 144.18 106.492L141.464 105.372C139.7 104.672 138.216 104.112 138.216 102.628C138.216 101.284 139.364 100.472 141.184 100.472C142.892 100.472 144.264 101.088 145.608 102.18L147.68 99.576C146 97.868 143.592 96.916 141.184 96.916C137.012 96.916 134.016 99.52 134.016 102.908C134.016 105.904 136.144 107.612 138.216 108.452L140.988 109.628C142.836 110.412 144.096 110.916 144.096 112.456C144.096 113.884 142.976 114.808 140.82 114.808C139 114.808 137.012 113.912 135.556 112.54L133.176 115.396C135.192 117.328 137.936 118.392 140.736 118.392ZM168.737 118.392C172.657 118.392 176.241 115.368 176.241 110.188C176.241 104.98 172.657 101.956 168.737 101.956C164.789 101.956 161.205 104.98 161.205 110.188C161.205 115.368 164.789 118.392 168.737 118.392ZM168.737 115.06C166.581 115.06 165.405 113.128 165.405 110.188C165.405 107.22 166.581 105.316 168.737 105.316C170.865 105.316 172.041 107.22 172.041 110.188C172.041 113.128 170.865 115.06 168.737 115.06ZM194.076 118.392C195.056 118.392 195.7 118.224 196.176 118.056L195.672 115.004C195.392 115.06 195.28 115.06 195.14 115.06C194.748 115.06 194.328 114.752 194.328 113.772V95.684H190.212V113.604C190.212 116.516 191.192 118.392 194.076 118.392ZM214.22 118.392C216.348 118.392 217.832 117.356 219.204 115.76H219.288L219.596 118H222.956V102.348H218.868V112.904C217.804 114.304 216.964 114.864 215.676 114.864C214.136 114.864 213.464 114.024 213.464 111.616V102.348H209.348V112.12C209.348 116.068 210.832 118.392 214.22 118.392ZM243.584 118.392C244.984 118.392 246.076 118.084 246.916 117.804L246.244 114.808C245.796 114.976 245.208 115.172 244.676 115.172C243.304 115.172 242.548 114.332 242.548 112.54V105.568H246.44V102.348H242.548V98.092H239.132L238.684 102.348L236.248 102.516V105.568H238.432V112.54C238.432 116.04 239.86 118.392 243.584 118.392ZM260.157 118H264.273V102.348H260.157V118ZM262.201 99.8C263.629 99.8 264.609 98.904 264.609 97.532C264.609 96.188 263.629 95.32 262.201 95.32C260.773 95.32 259.821 96.188 259.821 97.532C259.821 98.904 260.773 99.8 262.201 99.8ZM285.713 118.392C289.633 118.392 293.217 115.368 293.217 110.188C293.217 104.98 289.633 101.956 285.713 101.956C281.765 101.956 278.181 104.98 278.181 110.188C278.181 115.368 281.765 118.392 285.713 118.392ZM285.713 115.06C283.557 115.06 282.381 113.128 282.381 110.188C282.381 107.22 283.557 105.316 285.713 105.316C287.841 105.316 289.017 107.22 289.017 110.188C289.017 113.128 287.841 115.06 285.713 115.06ZM307.189 118H311.305V107.22C312.453 106.1 313.265 105.484 314.553 105.484C316.065 105.484 316.765 106.296 316.765 108.76V118H320.881V108.228C320.881 104.308 319.397 101.956 316.037 101.956C313.909 101.956 312.285 103.076 310.941 104.42H310.857L310.521 102.348H307.189V118ZM340.106 118.392C344.166 118.392 346.322 116.208 346.322 113.436C346.322 110.552 344.054 109.488 341.982 108.704C340.302 108.116 338.874 107.668 338.874 106.548C338.874 105.624 339.518 105.008 340.946 105.008C342.094 105.008 343.214 105.568 344.306 106.352L346.182 103.888C344.894 102.88 343.102 101.956 340.834 101.956C337.25 101.956 335.01 103.944 335.01 106.716C335.01 109.376 337.222 110.552 339.21 111.336C340.834 111.952 342.486 112.512 342.486 113.66C342.486 114.64 341.758 115.34 340.19 115.34C338.734 115.34 337.418 114.696 335.99 113.604L334.142 116.208C335.682 117.496 338.006 118.392 340.106 118.392Z" fill="#0171C1"/>
<path d="M7.84008 155.28C9.76008 155.28 11.3401 154.54 12.5601 153.12L11.0001 151.26C10.2201 152.12 9.22008 152.72 7.96008 152.72C5.60008 152.72 4.10008 150.8 4.10008 147.56C4.10008 144.4 5.78008 142.48 8.00008 142.48C9.14008 142.48 9.98008 142.98 10.7401 143.72L12.3001 141.82C11.3401 140.82 9.84008 139.94 7.96008 139.94C4.20008 139.94 1.08008 142.78 1.08008 147.66C1.08008 152.6 4.10008 155.28 7.84008 155.28Z" fill="#616264"/>
<path d="M19.3851 155.28C22.1851 155.28 24.7451 153.12 24.7451 149.42C24.7451 145.7 22.1851 143.54 19.3851 143.54C16.5651 143.54 14.0051 145.7 14.0051 149.42C14.0051 153.12 16.5651 155.28 19.3851 155.28ZM19.3851 152.9C17.8451 152.9 17.0051 151.52 17.0051 149.42C17.0051 147.3 17.8451 145.94 19.3851 145.94C20.9051 145.94 21.7451 147.3 21.7451 149.42C21.7451 151.52 20.9051 152.9 19.3851 152.9Z" fill="#616264"/>
<path d="M27.2246 155H30.1646V147.3C30.9846 146.5 31.5646 146.06 32.4846 146.06C33.5646 146.06 34.0646 146.64 34.0646 148.4V155H37.0046V148.02C37.0046 145.22 35.9446 143.54 33.5446 143.54C32.0246 143.54 30.8646 144.34 29.9046 145.3H29.8446L29.6046 143.82H27.2246V155Z" fill="#616264"/>
<path d="M40.0371 155H42.9771V147.3C43.7971 146.5 44.3771 146.06 45.2971 146.06C46.3771 146.06 46.8771 146.64 46.8771 148.4V155H49.8171V148.02C49.8171 145.22 48.7571 143.54 46.3571 143.54C44.8371 143.54 43.6771 144.34 42.7171 145.3H42.6571L42.4171 143.82H40.0371V155Z" fill="#616264"/>
<path d="M57.7296 155.28C59.1096 155.28 60.5096 154.82 61.6096 154.06L60.6296 152.24C59.8096 152.74 59.0096 153.02 58.1096 153.02C56.4496 153.02 55.2496 152.08 54.9896 150.24H61.9096C61.9696 149.96 62.0296 149.44 62.0296 148.88C62.0296 145.78 60.4496 143.54 57.3496 143.54C54.7096 143.54 52.1496 145.78 52.1496 149.42C52.1496 153.12 54.5896 155.28 57.7296 155.28ZM54.9496 148.28C55.1896 146.64 56.2296 145.8 57.4096 145.8C58.8496 145.8 59.5296 146.76 59.5296 148.28H54.9496Z" fill="#616264"/>
<path d="M69.2107 155.28C70.4507 155.28 71.8307 154.86 72.8907 153.94L71.7307 152C71.1107 152.5 70.3507 152.9 69.5307 152.9C67.9307 152.9 66.7707 151.52 66.7707 149.42C66.7707 147.3 67.9107 145.94 69.6507 145.94C70.2507 145.94 70.7907 146.18 71.3507 146.66L72.7307 144.78C71.9107 144.06 70.8707 143.54 69.4707 143.54C66.4307 143.54 63.7707 145.7 63.7707 149.42C63.7707 153.12 66.1307 155.28 69.2107 155.28Z" fill="#616264"/>
<path d="M78.7655 155.28C79.7655 155.28 80.5455 155.06 81.1455 154.86L80.6656 152.72C80.3456 152.84 79.9255 152.98 79.5455 152.98C78.5655 152.98 78.0255 152.38 78.0255 151.1V146.12H80.8055V143.82H78.0255V140.78H75.5855L75.2655 143.82L73.5255 143.94V146.12H75.0855V151.1C75.0855 153.6 76.1055 155.28 78.7655 155.28Z" fill="#616264"/>
<path d="M83.1035 155H86.0435V143.82H83.1035V155ZM84.5635 142C85.5835 142 86.2835 141.36 86.2835 140.38C86.2835 139.42 85.5835 138.8 84.5635 138.8C83.5435 138.8 82.8635 139.42 82.8635 140.38C82.8635 141.36 83.5435 142 84.5635 142Z" fill="#616264"/>
<path d="M89.1777 155H92.1177V147.3C92.9377 146.5 93.5177 146.06 94.4377 146.06C95.5177 146.06 96.0177 146.64 96.0177 148.4V155H98.9577V148.02C98.9577 145.22 97.8977 143.54 95.4977 143.54C93.9777 143.54 92.8177 144.34 91.8577 145.3H91.7977L91.5577 143.82H89.1777V155Z" fill="#616264"/>
<path d="M105.91 159.86C109.65 159.86 112.03 158.16 112.03 155.9C112.03 153.92 110.55 153.1 107.85 153.1H105.93C104.63 153.1 104.17 152.76 104.17 152.18C104.17 151.72 104.35 151.48 104.65 151.2C105.15 151.38 105.65 151.46 106.09 151.46C108.51 151.46 110.43 150.2 110.43 147.66C110.43 146.98 110.21 146.36 109.91 145.98H111.83V143.82H107.79C107.33 143.64 106.73 143.54 106.09 143.54C103.73 143.54 101.57 144.94 101.57 147.58C101.57 148.9 102.31 149.96 103.09 150.52V150.6C102.39 151.08 101.83 151.84 101.83 152.68C101.83 153.6 102.27 154.2 102.85 154.58V154.68C101.81 155.24 101.25 156.06 101.25 157C101.25 158.96 103.29 159.86 105.91 159.86ZM106.09 149.66C105.11 149.66 104.33 148.9 104.33 147.58C104.33 146.26 105.11 145.54 106.09 145.54C107.09 145.54 107.85 146.26 107.85 147.58C107.85 148.9 107.07 149.66 106.09 149.66ZM106.37 158C104.73 158 103.69 157.48 103.69 156.54C103.69 156.08 103.91 155.64 104.43 155.22C104.83 155.34 105.29 155.38 105.97 155.38H107.33C108.53 155.38 109.19 155.6 109.19 156.4C109.19 157.26 108.05 158 106.37 158Z" fill="#616264"/>
<path d="M118.695 155H121.655V149.74H123.635C126.815 149.74 129.335 148.24 129.335 144.86C129.335 141.34 126.815 140.2 123.555 140.2H118.695V155ZM121.655 147.4V142.56H123.335C125.375 142.56 126.455 143.12 126.455 144.86C126.455 146.54 125.475 147.4 123.435 147.4H121.655Z" fill="#616264"/>
<path d="M136.05 155.28C137.43 155.28 138.83 154.82 139.93 154.06L138.95 152.24C138.13 152.74 137.33 153.02 136.43 153.02C134.77 153.02 133.57 152.08 133.31 150.24H140.23C140.29 149.96 140.35 149.44 140.35 148.88C140.35 145.78 138.77 143.54 135.67 143.54C133.03 143.54 130.47 145.78 130.47 149.42C130.47 153.12 132.91 155.28 136.05 155.28ZM133.27 148.28C133.51 146.64 134.55 145.8 135.73 145.8C137.17 145.8 137.85 146.76 137.85 148.28H133.27Z" fill="#616264"/>
<path d="M147.471 155.28C150.271 155.28 152.831 153.12 152.831 149.42C152.831 145.7 150.271 143.54 147.471 143.54C144.651 143.54 142.091 145.7 142.091 149.42C142.091 153.12 144.651 155.28 147.471 155.28ZM147.471 152.9C145.931 152.9 145.091 151.52 145.091 149.42C145.091 147.3 145.931 145.94 147.471 145.94C148.991 145.94 149.831 147.3 149.831 149.42C149.831 151.52 148.991 152.9 147.471 152.9Z" fill="#616264"/>
<path d="M155.311 159.3H158.251V155.9L158.151 154.08C158.991 154.86 159.951 155.28 160.911 155.28C163.371 155.28 165.671 153.08 165.671 149.24C165.671 145.78 164.031 143.54 161.271 143.54C160.071 143.54 158.911 144.16 157.991 144.98H157.931L157.691 143.82H155.311V159.3ZM160.271 152.86C159.671 152.86 158.951 152.66 158.251 152.04V147.1C159.011 146.32 159.691 145.94 160.431 145.94C161.991 145.94 162.651 147.12 162.651 149.28C162.651 151.7 161.611 152.86 160.271 152.86Z" fill="#616264"/>
<path d="M170.942 155.28C171.642 155.28 172.102 155.16 172.442 155.04L172.082 152.86C171.882 152.9 171.802 152.9 171.702 152.9C171.422 152.9 171.122 152.68 171.122 151.98V139.06H168.182V151.86C168.182 153.94 168.882 155.28 170.942 155.28Z" fill="#616264"/>
<path d="M179.37 155.28C180.75 155.28 182.15 154.82 183.25 154.06L182.27 152.24C181.45 152.74 180.65 153.02 179.75 153.02C178.09 153.02 176.89 152.08 176.63 150.24H183.55C183.61 149.96 183.67 149.44 183.67 148.88C183.67 145.78 182.09 143.54 178.99 143.54C176.35 143.54 173.79 145.78 173.79 149.42C173.79 153.12 176.23 155.28 179.37 155.28ZM176.59 148.28C176.83 146.64 177.87 145.8 179.05 145.8C180.49 145.8 181.17 146.76 181.17 148.28H176.59Z" fill="#616264"/>
<path d="M193.383 155.28C194.663 155.28 195.783 154.66 196.763 153.82H196.843L197.063 155H199.463V148.48C199.463 145.22 198.003 143.54 195.163 143.54C193.383 143.54 191.803 144.2 190.483 145L191.543 146.96C192.563 146.34 193.583 145.9 194.623 145.9C196.003 145.9 196.463 146.72 196.523 147.82C192.023 148.32 190.083 149.58 190.083 151.96C190.083 153.88 191.383 155.28 193.383 155.28ZM194.343 152.98C193.483 152.98 192.883 152.6 192.883 151.74C192.883 150.72 193.783 149.98 196.523 149.64V151.9C195.803 152.6 195.183 152.98 194.343 152.98Z" fill="#616264"/>
<path d="M202.459 155H205.399V147.3C206.219 146.5 206.799 146.06 207.719 146.06C208.799 146.06 209.299 146.64 209.299 148.4V155H212.239V148.02C212.239 145.22 211.179 143.54 208.779 143.54C207.259 143.54 206.099 144.34 205.139 145.3H205.079L204.839 143.82H202.459V155Z" fill="#616264"/>
<path d="M219.211 155.28C220.371 155.28 221.491 154.66 222.311 153.84H222.371L222.591 155H224.991V139.06H222.051V142.98L222.171 144.74C221.351 144 220.571 143.54 219.311 143.54C216.911 143.54 214.611 145.76 214.611 149.42C214.611 153.1 216.411 155.28 219.211 155.28ZM219.951 152.86C218.491 152.86 217.631 151.72 217.631 149.38C217.631 147.14 218.711 145.94 219.971 145.94C220.671 145.94 221.391 146.18 222.051 146.8V151.72C221.411 152.54 220.751 152.86 219.951 152.86Z" fill="#616264"/>
<path d="M235.854 155H238.814V142.66H242.994V140.2H231.674V142.66H235.854V155Z" fill="#616264"/>
<path d="M248.257 155.28C249.637 155.28 251.037 154.82 252.137 154.06L251.157 152.24C250.337 152.74 249.537 153.02 248.637 153.02C246.977 153.02 245.777 152.08 245.517 150.24H252.437C252.497 149.96 252.557 149.44 252.557 148.88C252.557 145.78 250.977 143.54 247.877 143.54C245.237 143.54 242.677 145.78 242.677 149.42C242.677 153.12 245.117 155.28 248.257 155.28ZM245.477 148.28C245.717 146.64 246.757 145.8 247.937 145.8C249.377 145.8 250.057 146.76 250.057 148.28H245.477Z" fill="#616264"/>
<path d="M259.738 155.28C260.978 155.28 262.358 154.86 263.418 153.94L262.258 152C261.638 152.5 260.878 152.9 260.058 152.9C258.458 152.9 257.298 151.52 257.298 149.42C257.298 147.3 258.438 145.94 260.178 145.94C260.778 145.94 261.318 146.18 261.878 146.66L263.258 144.78C262.438 144.06 261.398 143.54 259.998 143.54C256.958 143.54 254.298 145.7 254.298 149.42C254.298 153.12 256.658 155.28 259.738 155.28Z" fill="#616264"/>
<path d="M265.545 155H268.485V147.3C269.305 146.5 269.885 146.06 270.805 146.06C271.885 146.06 272.385 146.64 272.385 148.4V155H275.325V148.02C275.325 145.22 274.265 143.54 271.865 143.54C270.345 143.54 269.225 144.34 268.345 145.18L268.485 143.08V139.06H265.545V155Z" fill="#616264"/>
<path d="M278.338 155H281.278V147.3C282.098 146.5 282.678 146.06 283.598 146.06C284.678 146.06 285.178 146.64 285.178 148.4V155H288.118V148.02C288.118 145.22 287.058 143.54 284.658 143.54C283.138 143.54 281.978 144.34 281.018 145.3H280.958L280.718 143.82H278.338V155Z" fill="#616264"/>
<path d="M295.83 155.28C298.63 155.28 301.19 153.12 301.19 149.42C301.19 145.7 298.63 143.54 295.83 143.54C293.01 143.54 290.45 145.7 290.45 149.42C290.45 153.12 293.01 155.28 295.83 155.28ZM295.83 152.9C294.29 152.9 293.45 151.52 293.45 149.42C293.45 147.3 294.29 145.94 295.83 145.94C297.35 145.94 298.19 147.3 298.19 149.42C298.19 151.52 297.35 152.9 295.83 152.9Z" fill="#616264"/>
<path d="M306.43 155.28C307.13 155.28 307.59 155.16 307.93 155.04L307.57 152.86C307.37 152.9 307.29 152.9 307.19 152.9C306.91 152.9 306.61 152.68 306.61 151.98V139.06H303.67V151.86C303.67 153.94 304.37 155.28 306.43 155.28Z" fill="#616264"/>
<path d="M314.659 155.28C317.459 155.28 320.019 153.12 320.019 149.42C320.019 145.7 317.459 143.54 314.659 143.54C311.839 143.54 309.279 145.7 309.279 149.42C309.279 153.12 311.839 155.28 314.659 155.28ZM314.659 152.9C313.119 152.9 312.279 151.52 312.279 149.42C312.279 147.3 313.119 145.94 314.659 145.94C316.179 145.94 317.019 147.3 317.019 149.42C317.019 151.52 316.179 152.9 314.659 152.9Z" fill="#616264"/>
<path d="M326.418 159.86C330.158 159.86 332.538 158.16 332.538 155.9C332.538 153.92 331.058 153.1 328.358 153.1H326.438C325.138 153.1 324.678 152.76 324.678 152.18C324.678 151.72 324.858 151.48 325.158 151.2C325.658 151.38 326.158 151.46 326.598 151.46C329.018 151.46 330.938 150.2 330.938 147.66C330.938 146.98 330.718 146.36 330.418 145.98H332.338V143.82H328.298C327.838 143.64 327.238 143.54 326.598 143.54C324.238 143.54 322.078 144.94 322.078 147.58C322.078 148.9 322.818 149.96 323.598 150.52V150.6C322.898 151.08 322.338 151.84 322.338 152.68C322.338 153.6 322.778 154.2 323.358 154.58V154.68C322.318 155.24 321.758 156.06 321.758 157C321.758 158.96 323.798 159.86 326.418 159.86ZM326.598 149.66C325.618 149.66 324.838 148.9 324.838 147.58C324.838 146.26 325.618 145.54 326.598 145.54C327.598 145.54 328.358 146.26 328.358 147.58C328.358 148.9 327.578 149.66 326.598 149.66ZM326.878 158C325.238 158 324.198 157.48 324.198 156.54C324.198 156.08 324.418 155.64 324.938 155.22C325.338 155.34 325.798 155.38 326.478 155.38H327.838C329.038 155.38 329.698 155.6 329.698 156.4C329.698 157.26 328.558 158 326.878 158Z" fill="#616264"/>
<path d="M335.45 159.5C337.97 159.5 339.17 157.98 340.15 155.36L344.13 143.82H341.31L339.75 149C339.49 150.06 339.21 151.12 338.97 152.18H338.87C338.53 151.1 338.25 150.02 337.91 149L336.15 143.82H333.17L337.53 154.8L337.35 155.46C337.01 156.46 336.37 157.18 335.25 157.18C334.97 157.18 334.67 157.08 334.47 157.02L333.93 159.28C334.35 159.42 334.81 159.5 335.45 159.5Z" fill="#616264"/>
</svg>
